<svg xmlns="http://www.w3.org/2000/svg" xmlns:xlink="http://www.w3.org/1999/xlink" width="40" zoomAndPan="magnify" viewBox="0 0 30 30.000001" height="40" preserveAspectRatio="xMidYMid meet" version="1.0"><defs><clipPath id="92e052af91"><path d="M 0.492188 1.652344 L 29.507812 1.652344 L 29.507812 27.054688 L 0.492188 27.054688 Z M 0.492188 1.652344 " clip-rule="nonzero"/></clipPath></defs><g clip-path="url(#92e052af91)"><path fill="#ff1616" d="M 27.050781 4.082031 C 25.476562 2.515625 23.371094 1.652344 21.128906 1.652344 C 18.90625 1.652344 16.804688 2.515625 15.226562 4.074219 L 15 4.296875 C 14.929688 4.222656 14.855469 4.152344 14.78125 4.082031 C 13.203125 2.515625 11.101562 1.664062 8.859375 1.664062 C 6.628906 1.664062 4.523438 2.515625 2.957031 4.074219 C 1.371094 5.628906 0.492188 7.710938 0.492188 9.929688 C 0.492188 12.140625 1.371094 14.210938 2.949219 15.769531 L 14.003906 26.6875 C 14.265625 26.957031 14.617188 27.078125 14.964844 27.078125 C 15.308594 27.078125 15.652344 26.957031 15.925781 26.695312 L 27.050781 15.769531 C 28.636719 14.203125 29.507812 12.125 29.507812 9.929688 C 29.507812 7.71875 28.636719 5.640625 27.050781 4.082031 " fill-opacity="1" fill-rule="nonzero"/></g></svg>