<svg xmlns="http://www.w3.org/2000/svg" xmlns:xlink="http://www.w3.org/1999/xlink" width="40" zoomAndPan="magnify" viewBox="0 0 30 30.000001" height="40" preserveAspectRatio="xMidYMid meet" version="1.0"><defs><clipPath id="4de059df0e"><path d="M 0.484375 1.578125 L 29.515625 1.578125 L 29.515625 27.621094 L 0.484375 27.621094 Z M 0.484375 1.578125 " clip-rule="nonzero"/></clipPath></defs><g clip-path="url(#4de059df0e)"><path fill="#a6a6a6" d="M 25.839844 14.425781 L 14.960938 25.402344 L 4.164062 14.425781 C 1.675781 11.914062 1.675781 7.824219 4.164062 5.3125 C 7.175781 2.253906 12.191406 3.046875 14.210938 6.753906 C 14.5625 7.394531 15.472656 7.382812 15.808594 6.734375 C 17.6875 3.082031 22.785156 2.214844 25.835938 5.3125 C 28.300781 7.820312 28.339844 11.878906 25.839844 14.425781 Z M 27.117188 4.007812 C 23.574219 0.40625 17.859375 0.960938 14.988281 4.644531 C 11.96875 0.875 6.335938 0.5 2.886719 4.003906 C -0.316406 7.234375 -0.316406 12.496094 2.882812 15.726562 L 14.316406 27.351562 C 14.671875 27.707031 15.242188 27.714844 15.597656 27.355469 L 27.117188 15.726562 C 30.324219 12.46875 30.304688 7.242188 27.117188 4.007812 " fill-opacity="1" fill-rule="nonzero"/></g></svg>